<?xml version="1.0" standalone="no"?>
<!DOCTYPE svg PUBLIC "-//W3C//DTD SVG 20010904//EN"
 "http://www.w3.org/TR/2001/REC-SVG-20010904/DTD/svg10.dtd">
<svg version="1.0" xmlns="http://www.w3.org/2000/svg"
 width="1920.000000pt" height="1920.000000pt" viewBox="0 0 1920.000000 1920.000000"
 preserveAspectRatio="xMidYMid meet">
<metadata>
Created by potrace 1.14, written by Peter Selinger 2001-2017
</metadata>
<g transform="translate(0.000000,1920.000000) scale(0.100000,-0.100000)"
fill="#000000" stroke="none">
<path d="M16227 12377 c-161 -62 -235 -212 -173 -351 27 -59 57 -94 112 -128
76 -48 169 -64 259 -43 257 59 327 342 120 485 -89 62 -216 76 -318 37z"/>
<path d="M1298 11485 c-2 -2 -26 -6 -53 -9 -28 -2 -57 -7 -65 -10 -8 -3 -33
-8 -54 -11 -100 -14 -298 -94 -431 -173 -55 -32 -79 -50 -155 -114 l-25 -21
-6 85 c-8 119 -43 174 -138 219 -46 21 -132 29 -192 16 -33 -7 -96 -46 -126
-78 -56 -61 -53 9 -53 -1365 0 -942 3 -1277 12 -1306 21 -69 100 -135 187
-154 36 -8 40 -8 93 0 95 13 164 61 197 137 20 45 20 66 21 840 1 437 5 812
10 834 5 22 11 54 13 70 8 52 47 158 82 222 119 218 343 363 620 401 64 8 265
8 330 -1 184 -25 362 -108 486 -228 51 -49 126 -155 156 -219 16 -33 60 -176
69 -220 4 -19 8 -401 10 -847 2 -803 2 -813 23 -856 26 -54 56 -82 118 -113
62 -30 175 -28 240 5 52 26 108 91 120 139 10 44 10 1544 -1 1649 -4 40 -11
86 -16 103 -5 16 -7 30 -5 30 2 0 -2 18 -10 40 -8 22 -12 40 -10 40 19 0 -134
337 -164 360 -3 3 -26 31 -50 63 -94 127 -251 253 -411 330 -139 67 -254 101
-440 133 -38 7 -376 14 -382 9z"/>
<path d="M4829 11486 c-2 -3 -36 -8 -74 -11 -39 -4 -73 -9 -76 -10 -3 -2 -27
-7 -53 -10 -26 -4 -78 -16 -114 -26 -37 -11 -74 -22 -82 -24 -23 -5 -169 -60
-215 -81 -22 -10 -43 -17 -47 -16 -5 1 -8 -2 -8 -7 0 -5 -10 -11 -22 -15 -23
-6 -205 -117 -243 -148 -154 -127 -230 -201 -306 -304 -24 -32 -47 -60 -51
-62 -5 -2 -8 -10 -8 -17 0 -8 -6 -20 -13 -27 -7 -7 -24 -33 -38 -58 -13 -25
-28 -48 -34 -52 -5 -4 -7 -8 -3 -8 4 0 -4 -22 -17 -48 -26 -52 -81 -209 -89
-257 -3 -16 -8 -41 -11 -55 -23 -112 -24 -389 -1 -450 3 -8 7 -28 9 -45 12
-80 63 -229 110 -320 34 -66 105 -184 122 -201 5 -6 19 -23 30 -38 74 -102
211 -232 330 -315 28 -19 52 -37 55 -40 14 -16 241 -133 305 -158 159 -61 298
-98 460 -120 76 -10 441 -9 520 2 49 6 177 34 278 60 105 26 299 110 412 179
48 29 188 129 211 150 101 96 154 149 154 157 0 5 4 9 8 9 5 0 34 35 65 78 31
42 60 82 65 87 4 6 33 62 65 125 60 123 106 250 114 315 2 21 6 42 9 46 17 28
25 336 11 434 -34 236 -129 460 -283 665 -47 61 -237 241 -309 291 -240 167
-518 275 -816 315 -54 7 -414 15 -420 10z m347 -418 c5 -3 32 -9 59 -12 52 -7
65 -11 175 -47 73 -24 250 -109 270 -129 3 -3 30 -24 60 -47 221 -168 374
-428 405 -688 7 -58 7 -217 0 -248 -2 -12 -7 -40 -11 -62 -5 -34 -10 -62 -13
-72 -1 -2 -1 -5 -1 -8 0 -18 -78 -204 -89 -215 -4 -3 -13 -18 -21 -35 -48 -98
-199 -257 -322 -339 -103 -68 -276 -147 -353 -162 -5 -1 -29 -7 -53 -13 -54
-15 -189 -30 -297 -33 -110 -3 -331 37 -435 79 -8 4 -17 7 -20 8 -3 1 -22 9
-44 18 -21 9 -40 17 -42 17 -2 0 -37 20 -78 44 -231 137 -404 341 -482 568
-19 58 -30 100 -49 198 -6 30 -6 214 -1 250 14 83 20 110 38 169 23 75 86 214
99 219 5 2 9 10 9 18 0 8 5 14 10 14 6 0 10 5 10 11 0 25 177 218 231 254 9 6
44 29 79 52 145 98 334 169 500 188 30 4 56 8 58 10 5 5 299 -2 308 -7z"/>
<path d="M8579 11485 c-2 -2 -32 -6 -66 -9 -308 -28 -687 -184 -923 -381 -120
-99 -263 -255 -300 -325 -7 -14 -16 -27 -20 -30 -9 -6 -120 -210 -115 -210 2
0 -3 -17 -12 -37 -17 -42 -59 -181 -68 -228 -27 -142 -27 -354 0 -490 51 -257
188 -514 380 -709 183 -186 414 -329 674 -417 66 -22 131 -42 143 -45 13 -3
43 -9 68 -14 133 -29 227 -38 400 -39 74 0 151 1 170 3 83 9 168 21 220 31 14
3 35 7 48 10 13 2 32 7 42 10 10 3 27 7 37 9 40 8 211 70 266 97 31 15 57 25
57 22 0 -4 8 0 18 8 9 8 33 23 52 33 19 11 54 32 78 48 24 15 45 28 47 28 27
0 291 243 343 315 99 137 98 135 154 243 35 68 100 239 103 272 0 9 4 21 9 28
4 6 5 12 2 12 -2 0 0 15 5 33 31 102 31 381 -1 532 -6 28 -12 59 -14 70 -10
54 -62 190 -106 277 -76 150 -146 245 -275 373 -117 117 -233 201 -375 272
-41 21 -77 41 -80 44 -9 11 -202 80 -279 101 -78 20 -151 36 -211 44 -19 3
-53 8 -75 11 -44 6 -391 14 -396 8z m406 -429 c155 -34 282 -80 367 -133 21
-13 40 -23 43 -23 3 0 11 -4 18 -10 7 -5 39 -30 72 -54 73 -54 160 -141 219
-221 61 -80 149 -262 162 -330 2 -11 10 -53 17 -93 17 -86 19 -241 6 -327 -12
-74 -45 -187 -70 -239 -10 -22 -19 -46 -19 -53 0 -7 -4 -13 -10 -13 -5 0 -10
-6 -10 -13 0 -8 -18 -39 -40 -71 -22 -31 -40 -59 -40 -61 0 -16 -200 -215
-216 -215 -3 0 -14 -8 -25 -18 -10 -11 -32 -25 -47 -33 -15 -8 -29 -17 -32
-20 -12 -16 -183 -89 -262 -113 -99 -31 -113 -34 -183 -42 -27 -3 -63 -7 -80
-9 -67 -9 -270 -2 -325 10 -14 3 -47 10 -75 15 -129 26 -303 103 -427 189
-244 168 -416 449 -446 726 -32 300 64 582 276 806 167 178 410 307 647 345
17 3 53 8 80 13 80 12 323 4 400 -13z"/>
<path d="M18079 11486 c-2 -2 -33 -7 -69 -11 -153 -17 -356 -96 -477 -186 -74
-55 -179 -161 -188 -190 -4 -11 -11 -19 -16 -19 -5 0 -9 -6 -9 -14 0 -7 -7
-19 -15 -26 -8 -7 -12 -16 -9 -21 3 -5 1 -9 -4 -9 -8 0 -54 -125 -69 -185 -11
-48 -9 -242 3 -295 7 -32 15 -68 18 -82 2 -14 9 -35 15 -47 63 -122 76 -143
127 -195 132 -138 320 -234 649 -331 257 -76 396 -136 488 -209 73 -57 94 -83
130 -156 29 -59 32 -73 31 -155 0 -65 -6 -101 -19 -130 -10 -22 -18 -43 -17
-47 1 -4 -26 -36 -61 -71 -108 -111 -232 -159 -412 -158 -91 1 -107 3 -189 25
-154 42 -280 149 -354 299 -48 96 -83 131 -154 151 -86 26 -192 1 -251 -59
-33 -34 -59 -117 -51 -165 3 -19 6 -44 7 -55 4 -34 49 -137 81 -185 70 -104
214 -220 356 -288 90 -42 223 -86 305 -99 17 -3 50 -9 75 -13 50 -9 346 -6
400 4 228 45 423 140 561 276 92 91 167 194 161 223 -1 4 1 7 6 7 8 0 22 32
47 110 21 65 28 237 14 323 -5 32 -19 86 -31 120 -53 154 -137 258 -295 365
-34 23 -66 42 -72 42 -5 0 -11 4 -13 8 -3 9 -174 82 -193 83 -5 1 -19 6 -29
11 -18 10 -198 64 -242 73 -38 8 -208 66 -284 97 -112 46 -220 121 -264 184
-49 71 -64 124 -60 218 3 98 42 184 116 256 41 40 188 130 188 115 0 -2 24 2
54 9 70 17 243 11 315 -10 77 -22 178 -77 226 -122 57 -54 86 -96 129 -185 25
-51 46 -82 62 -89 13 -6 24 -14 24 -18 0 -23 134 -41 202 -27 55 11 134 79
145 127 3 14 8 29 12 35 7 12 3 54 -11 125 -42 219 -256 412 -558 505 -101 31
-163 45 -198 45 -16 0 -32 3 -35 7 -8 7 -291 16 -298 9z"/>
<path d="M16243 11454 c-65 -27 -116 -78 -135 -137 -12 -35 -14 -257 -13
-1312 1 -1195 2 -1272 19 -1306 18 -39 66 -88 106 -109 31 -17 117 -39 124
-33 3 3 26 7 51 9 76 5 168 71 198 143 7 18 11 422 11 1296 1 1428 6 1330 -73
1403 -75 68 -189 86 -288 46z"/>
<path d="M10657 11428 c-25 -3 -52 -10 -59 -14 -7 -5 -16 -9 -19 -9 -3 0 -22
-13 -41 -30 -114 -97 -89 -252 52 -326 45 -23 46 -23 445 -24 l400 -1 2 -49
c3 -100 4 -223 4 -380 0 -143 0 -305 0 -320 0 -46 0 -231 0 -245 0 -8 0 -73 0
-145 0 -71 0 -141 -1 -155 -3 -34 -3 -64 -1 -130 2 -52 3 -314 2 -335 0 -5 -1
-48 -1 -95 0 -47 0 -107 -1 -135 0 -27 0 -84 0 -125 1 -41 1 -93 2 -115 0 -64
20 -113 62 -155 52 -53 90 -70 167 -76 114 -9 205 35 253 125 l27 48 0 1138
c0 626 2 1141 5 1144 3 2 182 5 398 6 280 1 398 4 413 13 12 6 24 9 26 7 11
-11 97 78 112 115 20 51 14 117 -15 170 -16 28 -38 47 -86 71 l-64 33 -1018 0
c-560 1 -1038 -2 -1064 -6z"/>
<path d="M13515 11428 c-76 -9 -83 -10 -122 -31 -49 -26 -90 -76 -104 -125
-14 -51 -20 -622 -6 -622 5 0 5 -5 1 -11 -9 -15 -9 -263 0 -278 4 -6 4 -11 -1
-11 -6 0 -8 -518 -3 -705 0 -11 -1 -33 -3 -50 -1 -16 1 -40 5 -52 4 -12 3 -25
-1 -27 -5 -3 -5 -24 -1 -46 4 -22 4 -43 0 -45 -4 -3 -4 -21 0 -40 4 -19 5 -35
1 -35 -7 0 -5 -144 2 -165 3 -7 3 -16 -1 -19 -7 -8 -6 -85 1 -93 4 -3 2 -13
-3 -22 -5 -10 -5 -23 -1 -30 5 -7 5 -29 1 -49 -3 -21 -3 -49 1 -64 4 -16 3
-30 -1 -33 -5 -3 -6 -16 -1 -28 5 -12 5 -32 0 -44 -5 -13 -4 -25 2 -28 5 -4 7
-11 4 -16 -10 -15 32 -98 67 -130 41 -38 109 -68 163 -71 33 -2 113 16 148 33
51 26 80 56 106 107 21 41 21 45 21 1182 0 627 3 1140 8 1141 41 5 640 2 682
-4 105 -14 162 -31 238 -73 153 -83 241 -219 248 -381 7 -187 -93 -350 -268
-436 -109 -53 -165 -64 -328 -68 -115 -2 -182 -24 -233 -75 -37 -38 -65 -101
-62 -144 3 -50 16 -100 25 -100 6 0 10 -6 10 -12 0 -7 61 -76 136 -153 159
-163 352 -362 694 -714 135 -139 261 -261 281 -271 19 -10 55 -21 80 -25 24
-4 45 -8 47 -10 9 -9 122 30 152 52 73 54 98 100 95 179 -1 54 -13 88 -40 120
-12 14 -428 442 -622 640 -136 140 -140 145 -116 155 13 5 28 9 32 9 4 0 31
11 59 25 29 14 56 25 62 25 5 0 10 5 10 10 0 6 4 10 10 10 38 0 290 208 290
240 0 5 6 13 13 17 39 25 136 221 153 308 26 133 28 275 5 353 -5 17 -8 32 -6
32 1 0 -10 34 -26 77 -74 199 -230 375 -430 487 -117 65 -300 120 -435 132
-98 9 -967 10 -1039 2z"/>
<path d="M4662 7872 c-59 -17 -124 -72 -145 -124 -35 -85 10 -203 101 -265
110 -74 374 -217 442 -238 12 -4 46 -18 76 -31 30 -13 56 -24 59 -25 2 0 33
-12 67 -25 107 -43 355 -123 429 -138 13 -3 60 -14 104 -26 44 -11 91 -22 105
-25 14 -3 36 -7 50 -10 14 -3 41 -8 60 -11 19 -2 42 -6 50 -9 8 -2 35 -7 60
-10 25 -3 52 -8 60 -10 19 -5 148 -20 260 -30 202 -18 564 -26 613 -14 16 5
27 4 27 -2 0 -6 4 -7 10 -4 5 3 49 8 97 10 48 3 102 7 118 9 17 3 62 8 100 11
77 7 77 7 220 30 140 22 158 25 175 30 8 2 29 7 45 10 17 2 66 14 110 25 44
11 89 22 100 25 101 21 327 95 502 165 140 56 354 159 447 215 32 19 62 35 67
35 5 0 9 5 9 10 0 6 6 10 13 10 21 0 104 82 126 126 88 172 -91 349 -289 285
-25 -8 -48 -19 -52 -25 -4 -6 -8 -7 -8 -3 0 5 -13 -1 -29 -12 -37 -27 -332
-174 -348 -174 -7 0 -13 -4 -13 -9 0 -4 -9 -8 -19 -8 -11 0 -22 -4 -25 -9 -3
-5 -18 -12 -33 -16 -15 -3 -45 -15 -68 -24 -69 -31 -342 -120 -415 -136 -8 -1
-35 -9 -60 -15 -25 -7 -54 -14 -65 -16 -11 -1 -21 -3 -22 -4 -3 -3 -6 -4 -53
-13 -19 -4 -46 -9 -60 -12 -14 -3 -38 -7 -55 -10 -16 -3 -41 -7 -55 -10 -14
-2 -45 -7 -70 -10 -25 -4 -58 -8 -75 -11 -161 -23 -263 -28 -535 -28 -146 0
-296 3 -335 7 -116 11 -179 18 -205 23 -14 2 -50 7 -80 10 -30 4 -57 9 -60 13
-3 3 -21 7 -40 8 -19 1 -87 14 -150 28 -63 14 -122 27 -130 29 -8 2 -35 9 -60
16 -25 7 -49 13 -55 15 -5 1 -17 4 -25 7 -8 3 -67 22 -130 42 -174 57 -348
129 -525 218 -88 45 -185 94 -215 109 -68 34 -129 41 -198 21z"/>
</g>
</svg>
